# xmcd
#
# Track frame offsets:
#	150
#	13320
#	27979
#	40197
#	55168
#	68709
#	81534
#	95051
#	109508
#	124330
#	136342
#	148397
#	158568
#	173919
#	185359
#	198310
#	211122
#	219994
#	235086
#	250558
#
# Disc length: 3566 seconds
#
# Revision: 0
# Processed by: cddbd v1.5.2PL0 Copyright (c) Steve Scherf et al.
# Submitted via: audiograbber 1.83.01
#
DISCID=1c0dec14
DTITLE=Various Artist - Hit Club The Hits 1949
DYEAR=1949
DGENRE=Swing
TTITLE0=Vaughn Monroe - Red Roses For A Blue Lady
TTITLE1=Marlene Dietrich - Black Market
TTITLE2=Fats Domino - The Fat Man
TTITLE3=Sarah Vaughan - Summertime
TTITLE4=Bing Crosby - Far Away Places
TTITLE5=Red Foley - Chattanooga Shoe Shine Boy
TTITLE6=Tommy Dorsey and Charlie Shavers - The Hucklebuck
TTITLE7=Gordon Jenkins - Don't Cry, Joe
TTITLE8=Louis Armstrong - You Can´t Loose
TTITLE9=Evelyn Knight - A Little Bird Told Me
TTITLE10=Russ Morgan - Cruising Down The River
TTITLE11=Margret Whiting And Jimmy Walker - Slipping Around
TTITLE12=Perry Como - Forever And Ever
TTITLE13=Danny Kaye - I´ve Got A Lovely Bunch Of Coconuts
TTITLE14=Johnny Mercer and Margaret Whiting - Baby, It's Cold Outside
TTITLE15=Gordon Jenkins - Again
TTITLE16=Vic Damone - You're Breaking My Heart
TTITLE17=Russ Morgan - So Tired
TTITLE18=Yves Montand - Les Feuilles Mortes
TTITLE19=Doris Day - It´s Magic
EXTD=
EXTT0=
EXTT1=
EXTT2=
EXTT3=
EXTT4=
EXTT5=
EXTT6=
EXTT7=
EXTT8=
EXTT9=
EXTT10=
EXTT11=
EXTT12=
EXTT13=
EXTT14=
EXTT15=
EXTT16=
EXTT17=
EXTT18=
EXTT19=
PLAYORDER=
